# File created by Blade
# Date/Time:  Tue Jan 27 20:02:46 2015
#---------------------------------------------------------
:version 1.10
:name HOM
:units
  mass 1.0
  length 1.000000
  angle deg
:documentation
     Acclaim Skeleton File
:root
   axis xyz
   order TX TY TZ RX RY RZ
   position 0.000000 0.000000 0.000000
   orientation 0 0 0
:bonedata
   begin
      id 1
      name Spine_dum
      direction 0.000000 1.000000 0.000000
      length 6.116652
      axis 0.0 0.0 0.0 xyz
   end
   begin
      id 2
      name LeftUpLeg_dum
      direction 1.000000 0.000000 0.000000
      length 4.711765
      axis 0.0 0.0 0.0 xyz
   end
   begin
      id 3
      name RightUpLeg_dum
      direction -1.000000 0.000000 0.000000
      length 4.711765
      axis 0.0 0.0 0.0 xyz
   end
   begin
      id 4
      name Spine
      direction 0.000000 1.000000 0.000000
      length 0.000000
      axis 0.0 0.0 0.0 xyz
      dof rx ry rz
   end
   begin
      id 5
      name Spine_dum1
      direction 0.000000 1.000000 0.000000
      length 15.225563
      axis 0.0 0.0 0.0 xyz
   end
   begin
      id 6
      name Spine_dum2
      direction 0.000000 1.000000 0.000000
      length 8.977654
      axis 0.0 0.0 0.0 xyz
   end
   begin
      id 7
      name Spine_dum3
      direction 0.000000 1.000000 0.000000
      length 8.977654
      axis 0.0 0.0 0.0 xyz
   end
   begin
      id 8
      name Head
      direction 0.000000 1.000000 0.000000
      length 4.527550
      axis 0.0 0.0 0.0 xyz
      dof rx ry rz
   end
   begin
      id 9
      name LeftShoulder
      direction 1.000000 0.000000 0.000000
      length 7.110130
      axis 0.0 0.0 -90.0 xyz
      dof rx ry rz
   end
   begin
      id 10
      name LeftArm
      direction 1.000000 0.000000 0.000000
      length 10.398341
      axis 0.0 0.0 -90.0 xyz
      dof rx ry rz
   end
   begin
      id 11
      name LeftForeArm
      direction 1.000000 0.000000 0.000000
      length 8.888997
      axis 0.0 0.0 -90.0 xyz
      dof ry rz rx
   end
   begin
      id 12
      name LeftHand
      direction 0.000000 0.000000 0.000000
      length 0.000000
      axis 0.0 0.0 -90.0 xyz
      dof rx ry rz
   end
   begin
      id 13
      name LeftHand_dum1
      direction 0.000000 0.000000 0.000000
      length 0.000000
      axis 0.0 0.0 -90.0 xyz
   end
   begin
      id 14
      name LeftHand_dum2
      direction 1.000000 0.000000 0.000000
      length 3.937000
      axis 0.0 0.0 -90.0 xyz
   end
   begin
      id 15
      name LeftHandThumb1
      direction 0.000000 0.000000 1.000000
      length 3.937000
      axis 0.0 0.0 -90.0 xyz
      dof rx rz ry
   end
   begin
      id 16
      name RightShoulder
      direction -1.000000 0.000000 0.000000
      length 7.110130
      axis 0.0 0.0 90.0 xyz
      dof rx ry rz
   end
   begin
      id 17
      name RightArm
      direction -1.000000 0.000000 0.000000
      length 10.398341
      axis 0.0 0.0 90.0 xyz
      dof rx ry rz
   end
   begin
      id 18
      name RightForeArm
      direction -1.000000 0.000000 0.000000
      length 8.888997
      axis 0.0 0.0 90.0 xyz
      dof ry rz rx
   end
   begin
      id 19
      name RightHand
      direction 0.000000 0.000000 0.000000
      length 0.000000
      axis 0.0 0.0 90.0 xyz
      dof rx ry rz
   end
   begin
      id 20
      name RightHand_dum1
      direction 0.000000 0.000000 0.000000
      length 0.000000
      axis 0.0 0.0 90.0 xyz
   end
   begin
      id 21
      name RightHand_dum2
      direction -1.000000 0.000000 0.000000
      length 3.937000
      axis 0.0 0.0 90.0 xyz
   end
   begin
      id 22
      name RightHandThumb1
      direction 0.000000 0.000000 1.000000
      length 3.937000
      axis 0.0 0.0 90.0 xyz
      dof rx rz ry
   end
   begin
      id 23
      name LeftUpLeg
      direction 0.000000 -1.000000 0.000000
      length 15.510451
      axis 0.0 0.0 0.0 xyz
      dof rx ry rz
   end
   begin
      id 24
      name LeftLeg
      direction 0.000000 -1.000000 0.000000
      length 14.858061
      axis 0.0 0.0 0.0 xyz
      dof rx ry rz
   end
   begin
      id 25
      name LeftFoot
      direction 0.000000 -0.258819 0.965926
      length 5.128852
      axis 15.0 0.0 0.0 xyz
      dof rx ry rz
   end
   begin
      id 26
      name LeftToeBase
      direction 0.000000 0.000000 1.000000
      length 2.952750
      axis 0.0 0.0 0.0 xyz
      dof rx ry rz
   end
   begin
      id 27
      name RightUpLeg
      direction 0.000000 -1.000000 0.000000
      length 15.510451
      axis 0.0 0.0 0.0 xyz
      dof rx ry rz
   end
   begin
      id 28
      name RightLeg
      direction 0.000000 -1.000000 0.000000
      length 14.858061
      axis 0.0 0.0 0.0 xyz
      dof rx ry rz
   end
   begin
      id 29
      name RightFoot
      direction 0.000000 -0.258819 0.965926
      length 5.128852
      axis 15.0 0.0 0.0 xyz
      dof rx ry rz
   end
   begin
      id 30
      name RightToeBase
      direction 0.000000 0.000000 1.000000
      length 2.952750
      axis 0.0 0.0 0.0 xyz
      dof rx ry rz
   end
:hierarchy
   begin
      root Spine_dum LeftUpLeg_dum RightUpLeg_dum
      Spine_dum Spine
      LeftUpLeg_dum LeftUpLeg
      RightUpLeg_dum RightUpLeg
      Spine Spine_dum1 Spine_dum2 Spine_dum3
      Spine_dum1 Head
      Spine_dum2 LeftShoulder
      Spine_dum3 RightShoulder
      LeftShoulder LeftArm
      LeftArm LeftForeArm
      LeftForeArm LeftHand
      LeftHand LeftHand_dum1 LeftHand_dum2
      LeftHand_dum1 LeftHandThumb1
      RightShoulder RightArm
      RightArm RightForeArm
      RightForeArm RightHand
      RightHand RightHand_dum1 RightHand_dum2
      RightHand_dum1 RightHandThumb1
      LeftUpLeg LeftLeg
      LeftLeg LeftFoot
      LeftFoot LeftToeBase
      RightUpLeg RightLeg
      RightLeg RightFoot
      RightFoot RightToeBase
   end

# File created by Blade
# Date/Time:  Tue Jan 27 20:02:37 2015
# Frame Rate: 120.000 fps
#------------------------------------------------------
:FULLY-SPECIFIED
:DEGREES
528
root 8.433916 32.076854 3.483919 -7.764710 30.627261 0.659507
Spine 8.063680 -11.850521 -4.205990
Head 8.266157 -17.033624 6.864570
LeftShoulder -11.493838 -2.325902 31.450003
LeftArm -6.544181 -3.582837 -84.752166
LeftForeArm -5.503978 -0.000000 116.803063
LeftHand 12.241749 -0.000000 8.282244
LeftHandThumb1 -26.253704 0.000000 33.147579
RightShoulder -23.284975 -19.294714 -19.809021
RightArm 9.953091 -25.570127 93.536529
RightForeArm -12.544689 -0.000000 17.382979
RightHand 16.262088 -0.000000 9.289600
RightHandThumb1 -24.326973 -0.000000 -32.862282
LeftUpLeg 14.156738 -7.287553 -10.947379
LeftLeg -2.908845 -0.000000 0.000000
LeftFoot -12.027378 11.301893 -15.794381
LeftToeBase 23.929665 -0.000000 -0.000000
RightUpLeg -47.502238 15.836887 11.067146
RightLeg 94.861867 -0.000000 -0.000000
RightFoot 5.619702 -10.074306 20.013297
RightToeBase 8.562321 -0.000000 -0.000000
529
root 8.440247 32.075131 3.491646 -7.754667 30.737247 0.689992
Spine 8.067327 -11.871821 -4.225220
Head 8.300822 -17.058389 6.838167
LeftShoulder -11.446023 -2.375004 31.448258
LeftArm -6.541659 -3.597999 -84.757523
LeftForeArm -5.531869 -0.000000 116.761626
LeftHand 12.306263 -0.000000 8.267273
LeftHandThumb1 -26.253704 0.000000 33.147579
RightShoulder -23.294114 -19.296109 -19.831031
RightArm 9.929675 -25.578240 93.504416
RightForeArm -12.418777 -0.000000 17.388911
RightHand 16.239859 -0.000000 9.746703
RightHandThumb1 -24.326973 -0.000000 -32.862282
LeftUpLeg 14.175688 -7.296245 -10.974857
LeftLeg -2.897013 -0.000000 0.000000
LeftFoot -11.983827 11.229020 -15.709827
LeftToeBase 23.850798 -0.000000 -0.000000
RightUpLeg -47.466045 15.839093 11.001944
RightLeg 95.062311 -0.000000 -0.000000
RightFoot 5.540284 -10.063977 20.190622
RightToeBase 9.185929 -0.000000 -0.000000
530
root 8.445723 32.073451 3.499649 -7.732586 30.859048 0.722552
Spine 8.054821 -11.937296 -4.254491
Head 8.352120 -17.064452 6.818703
LeftShoulder -11.465162 -2.385652 31.432830
LeftArm -6.510270 -3.579986 -84.741511
LeftForeArm -5.573457 -0.000000 116.720612
LeftHand 12.310416 0.000000 8.202121
LeftHandThumb1 -26.253704 0.000000 33.147579
RightShoulder -23.290809 -19.339650 -19.836900
RightArm 9.966817 -25.580212 93.445431
RightForeArm -12.396569 -0.000000 17.395601
RightHand 16.256383 0.000000 9.704102
RightHandThumb1 -24.326973 -0.000000 -32.862282
LeftUpLeg 14.179992 -7.329153 -11.000433
LeftLeg -2.882177 -0.000000 0.000000
LeftFoot -11.997997 11.166280 -15.766980
LeftToeBase 24.048871 -0.000000 -0.000000
RightUpLeg -47.450397 15.851339 10.930779
RightLeg 95.276786 -0.000000 -0.000000
RightFoot 5.500027 -10.091996 20.262025
RightToeBase 9.813585 -0.000000 -0.000000
531
root 8.453282 32.071853 3.509075 -7.717448 30.964874 0.758192
Spine 8.033353 -11.959633 -4.271629
Head 8.429531 -17.099020 6.765803
LeftShoulder -11.443975 -2.398079 31.413136
LeftArm -6.471639 -3.564643 -84.729215
LeftForeArm -5.611433 -0.000000 116.669775
LeftHand 12.337510 -0.000000 8.202712
LeftHandThumb1 -26.253704 0.000000 33.147579
RightShoulder -23.283480 -19.319355 -19.881825
RightArm 9.903159 -25.224881 93.522317
RightForeArm -12.776415 -0.000000 17.327291
RightHand 16.339311 -0.000000 9.767067
RightHandThumb1 -24.326973 -0.000000 -32.862282
LeftUpLeg 14.203456 -7.328498 -11.033406
LeftLeg -2.876525 -0.000000 0.000000
LeftFoot -11.964461 11.108916 -15.720170
LeftToeBase 23.871313 -0.000000 -0.000000
RightUpLeg -47.416198 15.859224 10.862238
RightLeg 95.504075 -0.000000 -0.000000
RightFoot 5.517213 -10.035996 20.296177
RightToeBase 9.866061 -0.000000 -0.000000
532
root 8.459548 32.070659 3.518170 -7.712146 31.061346 0.785027
Spine 8.026396 -11.981113 -4.286906
Head 8.491819 -17.119668 6.721038
LeftShoulder -11.437167 -2.414778 31.396158
LeftArm -6.434403 -3.547968 -84.705096
LeftForeArm -5.653867 -0.000000 116.619744
LeftHand 12.346281 -0.000000 8.187965
LeftHandThumb1 -26.253704 0.000000 33.147579
RightShoulder -23.263464 -19.318176 -19.899727
RightArm 9.879684 -25.114114 93.504200
RightForeArm -12.819662 -0.000000 17.316688
RightHand 16.344864 -0.000000 9.968719
RightHandThumb1 -24.326973 -0.000000 -32.862282
LeftUpLeg 14.228390 -7.333294 -11.053997
LeftLeg -2.869090 -0.000000 0.000000
LeftFoot -11.937752 10.997560 -15.681039
LeftToeBase 23.878045 -0.000000 -0.000000
RightUpLeg -47.372574 15.863372 10.806048
RightLeg 95.729375 -0.000000 -0.000000
RightFoot 5.600597 -9.971921 20.081130
RightToeBase 9.477581 -0.000000 -0.000000
533
root 8.465378 32.069282 3.527626 -7.716134 31.163805 0.804324
Spine 8.023018 -12.010864 -4.302355
Head 8.551250 -17.135778 6.686493
LeftShoulder -11.408116 -2.480684 31.400578
LeftArm -6.474749 -3.553154 -84.679398
LeftForeArm -5.732079 -0.000000 116.572421
LeftHand 12.389673 -0.000000 8.153359
LeftHandThumb1 -26.253704 0.000000 33.147579
RightShoulder -23.255280 -19.371595 -19.893295
RightArm 9.912755 -25.131990 93.434974
RightForeArm -12.734629 -0.000000 17.349916
RightHand 16.287544 -0.000000 9.995642
RightHandThumb1 -24.326973 -0.000000 -32.862282
LeftUpLeg 14.257016 -7.355755 -11.071157
LeftLeg -2.855320 -0.000000 0.000000
LeftFoot -11.934768 10.909743 -15.696870
LeftToeBase 23.917676 -0.000000 -0.000000
RightUpLeg -47.323151 15.867936 10.754835
RightLeg 95.953370 -0.000000 -0.000000
RightFoot 5.623740 -9.937507 19.949394
RightToeBase 9.287384 -0.000000 -0.000000
534
root 8.470776 32.068333 3.533570 -7.707754 31.260617 0.829069
Spine 8.016498 -12.033376 -4.322907
Head 8.605335 -17.161430 6.672209
LeftShoulder -11.372047 -2.453649 31.403238
LeftArm -6.426171 -3.576421 -84.674861
LeftForeArm -5.810626 -0.000000 116.520230
LeftHand 12.408431 0.000000 8.129686
LeftHandThumb1 -26.253704 0.000000 33.147579
RightShoulder -23.247124 -19.356245 -19.901021
RightArm 9.900209 -25.386546 93.314794
RightForeArm -12.519634 -0.000000 17.402932
RightHand 16.250332 -0.000000 9.570581
RightHandThumb1 -24.326973 -0.000000 -32.862282
LeftUpLeg 14.264409 -7.386922 -11.093256
LeftLeg -2.834159 -0.000000 0.000000
LeftFoot -11.925179 10.876254 -15.717305
LeftToeBase 23.963665 -0.000000 -0.000000
RightUpLeg -47.304548 15.865719 10.683501
RightLeg 96.214603 -0.000000 -0.000000
RightFoot 5.594932 -9.757475 20.017271
RightToeBase 9.324923 -0.000000 -0.000000
535
root 8.476277 32.067304 3.541560 -7.705975 31.350417 0.850984
Spine 8.006261 -12.044865 -4.338980
Head 8.661376 -17.193840 6.655091
LeftShoulder -11.354069 -2.472985 31.412487
LeftArm -6.416967 -3.574661 -84.663065
LeftForeArm -5.855347 -0.000000 116.461178
LeftHand 12.459202 -0.000000 8.151327
LeftHandThumb1 -26.253704 0.000000 33.147579
RightShoulder -23.249935 -19.342129 -19.919465
RightArm 9.874708 -25.380486 93.280925
RightForeArm -12.410900 -0.000000 17.409097
RightHand 16.192845 0.000000 9.481416
RightHandThumb1 -24.326973 -0.000000 -32.862282
LeftUpLeg 14.284346 -7.411318 -11.112667
LeftLeg -2.817773 -0.000000 0.000000
LeftFoot -11.937478 10.800718 -15.760995
LeftToeBase 24.075981 -0.000000 -0.000000
RightUpLeg -47.268219 15.873210 10.630288
RightLeg 96.481565 -0.000000 -0.000000
RightFoot 5.586828 -9.622301 19.856435
RightToeBase 9.449172 -0.000000 -0.000000
536
root 8.480990 32.066492 3.548630 -7.712589 31.422529 0.874469
Spine 8.007304 -12.040745 -4.359111
Head 8.732882 -17.216458 6.633679
LeftShoulder -11.327775 -2.490499 31.421170
LeftArm -6.410767 -3.583139 -84.642049
LeftForeArm -5.882457 -0.000000 116.407504
LeftHand 12.483214 -0.000000 8.187329
LeftHandThumb1 -26.253704 0.000000 33.147579
RightShoulder -23.244767 -19.339418 -19.935014
RightArm 9.867568 -25.294090 93.265026
RightForeArm -12.396535 -0.000000 17.399285
RightHand 16.172322 0.000000 9.622078
RightHandThumb1 -24.326973 -0.000000 -32.862282
LeftUpLeg 14.309501 -7.425208 -11.131902
LeftLeg -2.798275 -0.000000 0.000000
LeftFoot -11.927083 10.741268 -15.760959
LeftToeBase 24.024686 -0.000000 -0.000000
RightUpLeg -47.235691 15.826243 10.574302
RightLeg 96.751280 -0.000000 -0.000000
RightFoot 5.602558 -9.543032 19.842301
RightToeBase 9.680989 -0.000000 -0.000000
537
root 8.483292 32.066801 3.556689 -7.711819 31.467108 0.870787
Spine 7.978547 -12.015457 -4.345445
Head 8.796360 -17.223008 6.612947
LeftShoulder -11.314681 -2.487169 31.415782
LeftArm -6.394916 -3.595136 -84.614441
LeftForeArm -5.889496 -0.000000 116.354391
LeftHand 12.508653 -0.000000 8.183345
LeftHandThumb1 -26.253704 0.000000 33.147579
RightShoulder -23.234116 -19.281057 -19.969541
RightArm 9.801119 -25.208256 93.279314
RightForeArm -12.492698 -0.000000 17.352184
RightHand 16.185133 -0.000000 9.792101
RightHandThumb1 -24.326973 -0.000000 -32.862282
LeftUpLeg 14.321800 -7.418172 -11.116995
LeftLeg -2.798979 -0.000000 0.000000
LeftFoot -11.935181 10.670296 -15.792577
LeftToeBase 24.102415 -0.000000 -0.000000
RightUpLeg -47.213691 15.708052 10.560508
RightLeg 97.025350 -0.000000 -0.000000
RightFoot 5.801654 -9.444536 19.384263
RightToeBase 9.248779 -0.000000 -0.000000
538
root 8.489620 32.065681 3.565901 -7.699903 31.523822 0.900772
Spine 7.942085 -11.999200 -4.358540
Head 8.873964 -17.240210 6.585212
LeftShoulder -11.298731 -2.490234 31.425699
LeftArm -6.401925 -3.601440 -84.589750
LeftForeArm -5.939043 -0.000000 116.294547
LeftHand 12.555209 -0.000000 8.188131
LeftHandThumb1 -26.253704 0.000000 33.147579
RightShoulder -23.237111 -19.317232 -19.981028
RightArm 9.831660 -25.249489 93.229063
RightForeArm -12.479899 -0.000000 17.327652
RightHand 16.248114 0.000000 9.795607
RightHandThumb1 -24.326973 -0.000000 -32.862282
LeftUpLeg 14.346904 -7.416884 -11.140970
LeftLeg -2.803334 -0.000000 0.000000
LeftFoot -11.916631 10.618124 -15.821157
LeftToeBase 24.096089 -0.000000 -0.000000
RightUpLeg -47.192207 15.731407 10.498059
RightLeg 97.361267 -0.000000 -0.000000
RightFoot 5.852546 -9.330290 19.363171
RightToeBase 8.872315 -0.000000 -0.000000
539
root 8.494884 32.065053 3.578819 -7.702282 31.595160 0.913777
Spine 7.905214 -11.995907 -4.366067
Head 8.945098 -17.268755 6.561465
LeftShoulder -11.295187 -2.461504 31.434694
LeftArm -6.371115 -3.595800 -84.562193
LeftForeArm -6.015459 0.000000 116.230717
LeftHand 12.598642 -0.000000 8.129425
LeftHandThumb1 -26.253704 0.000000 33.147579
RightShoulder -23.244834 -19.352749 -19.987340
RightArm 9.838426 -25.204935 93.211828
RightForeArm -12.593657 -0.000000 17.315145
RightHand 16.248198 -0.000000 9.582353
RightHandThumb1 -24.326973 -0.000000 -32.862282
LeftUpLeg 14.379941 -7.385146 -11.134532
LeftLeg -2.804204 -0.000000 0.000000
LeftFoot -11.921102 10.507718 -15.864749
LeftToeBase 24.156818 -0.000000 -0.000000
RightUpLeg -47.163636 15.758759 10.444513
RightLeg 97.711534 -0.000000 -0.000000
RightFoot 5.733027 -9.212242 19.641882
RightToeBase 9.660950 -0.000000 -0.000000
